<svg xmlns="http://www.w3.org/2000/svg" width="1300" height="780" viewBox="0 0 1300 780">
  <rect width="1300" height="780" fill="#fbf8f2"/>
  <text x="55" y="70" font-family="Georgia, serif" font-size="34" fill="#32261f">Cookbook Recipe Flow</text>
  <text x="55" y="104" font-family="Georgia, serif" font-size="18" fill="#68594d">A quick way to see how the recipes in the cookbook are organized.</text>

  <g font-family="Helvetica, Arial, sans-serif">
    <!-- Configure: x=55..265, y=210..330 -->
    <rect x="55" y="210" width="210" height="120" rx="20" fill="#dceeff" stroke="#255f88" stroke-width="3"/>
    <text x="110" y="255" font-size="26" fill="#17344f">Configure</text>
    <text x="97" y="287" font-size="15" fill="#17344f">GemStoneConfig</text>
    <text x="105" y="309" font-size="15" fill="#17344f">from_env()</text>

    <!-- Connect: x=340..550, y=210..330 -->
    <rect x="340" y="210" width="210" height="120" rx="20" fill="#ffe7cc" stroke="#9b5f1e" stroke-width="3"/>
    <text x="415" y="255" font-size="26" fill="#5b3410">Connect</text>
    <text x="378" y="287" font-size="15" fill="#5b3410">session or</text>
    <text x="369" y="309" font-size="15" fill="#5b3410">session_scope()</text>

    <!-- Persist: x=630..840, y=210..330 -->
    <rect x="630" y="210" width="210" height="120" rx="20" fill="#e1f6df" stroke="#2c6b3e" stroke-width="3"/>
    <text x="690" y="255" font-size="26" fill="#1b4829">Persist</text>
    <text x="655" y="298" font-size="16" fill="#1b4829">root, store, query, log</text>

    <!-- Share: x=920..1140, y=210..330 -->
    <rect x="920" y="210" width="220" height="120" rx="20" fill="#eadfff" stroke="#56337f" stroke-width="3"/>
    <text x="970" y="255" font-size="26" fill="#3b2554">Share</text>
    <text x="943" y="298" font-size="16" fill="#3b2554">locks, queues, counters</text>

    <!-- Expose: x=340..550, y=490..610 -->
    <rect x="340" y="490" width="210" height="120" rx="20" fill="#fff1d8" stroke="#9b5f1e" stroke-width="3"/>
    <text x="395" y="535" font-size="26" fill="#5b3410">Expose</text>
    <text x="356" y="570" font-size="16" fill="#5b3410">Flask request sessions</text>

    <!-- Recover: x=630..840, y=490..610 -->
    <rect x="630" y="490" width="210" height="120" rx="20" fill="#ffe3e3" stroke="#8a2f2f" stroke-width="3"/>
    <text x="675" y="535" font-size="26" fill="#5b1717">Recover</text>
    <text x="650" y="570" font-size="16" fill="#5b1717">abort, retry, benchmark</text>
  </g>

  <!-- Configure right (265,270) → Connect left (340,270) -->
  <line x1="265" y1="270" x2="337" y2="270" stroke="#32261f" stroke-width="2.5" marker-end="url(#arr)"/>
  <!-- Connect right (550,270) → Persist left (630,270) -->
  <line x1="550" y1="270" x2="627" y2="270" stroke="#32261f" stroke-width="2.5" marker-end="url(#arr)"/>
  <!-- Persist right (840,270) → Share left (920,270) -->
  <line x1="840" y1="270" x2="917" y2="270" stroke="#32261f" stroke-width="2.5" marker-end="url(#arr)"/>
  <!-- Persist bottom-centre (735,330) → Recover top (735,490) — straight vertical -->
  <line x1="735" y1="330" x2="735" y2="487" stroke="#32261f" stroke-width="2.5" marker-end="url(#arr)"/>
  <!-- Share bottom-centre (1030,330) → down → left → Expose top (445,490) -->
  <path d="M1030 330 L1030 415 L445 415 L445 487" stroke="#32261f" stroke-width="2.5" fill="none" marker-end="url(#arr)"/>

  <defs>
    <marker id="arr" viewBox="0 0 10 10" refX="10" refY="5" markerWidth="5" markerHeight="5" orient="auto">
      <path d="M0 0 L10 5 L0 10 z" fill="#32261f"/>
    </marker>
  </defs>
</svg>
