<?xml version="1.0" encoding="utf-8"?>
<!-- Generator: Adobe Illustrator 21.0.0, SVG Export Plug-In . SVG Version: 6.00 Build 0)  -->
<svg version="1.1" id="Слой_1" xmlns="http://www.w3.org/2000/svg" xmlns:xlink="http://www.w3.org/1999/xlink" x="0px" y="0px"
	 viewBox="0 0 1000 1000" style="enable-background:new 0 0 1000 1000;" xml:space="preserve">
<style type="text/css">
	.st0{fill:#E2C30A;}
	.st1{fill:none;}
	.st2{fill:#E50737;}
	.st3{fill:#B27344;}
	.st4{fill:#010101;}
</style>
<g>
	<g>
		<path class="st0" d="M611.7,707c-6.2,15.3-8.1,32-18.3,45.6c-28.3,28.6-45.5,32.2-75.7,15.8c-10.1-9-16.5-20.7-23.1-32.3
			c-1.9,16.5,7.7,26.4,19.4,35.3c27.4,21.9,58.1,16.4,83.3-14.8C609.5,742.1,614.3,725.6,611.7,707z M294.1,662.2
			c-14.4-0.7-24.2-8.5-32.8-18.9c-13-23.8-9.6-48-2.1-72.3c7.9-14.2,17.1-27.4,27.4-40c-15.6,7.6-24.9,20.3-30.4,36.2
			c-11.7,27-15.3,53.8,2.2,80.1c15.5,25.1,38.6,23.7,63.9,17.6c0.2,0,0.4-0.1,0.6-0.1c2.9-5.8,5.2-12,6.3-18.3
			C322.6,660,313.7,663.2,294.1,662.2z"/>
	</g>
</g>
<path class="st1" d="M492.5,550.8c4.1,14.9,16.8,2.7,26.8,10.2c-1.7-14.5-8.4-19.8-18.3-20.2C495.5,540.6,490.7,544.6,492.5,550.8z"
	/>
<path class="st1" d="M425.2,463.1c2.1,2.4,4.2,4.8,6.4,7.2c0.6,0.6,1.1,1.3,1.7,1.9c22.3,12.8,41.7,35.5,72.2,19.6
	c4.7-2.4,5.7-0.6,3.1-7.8c-0.8,0-1.6-0.1-2.4-0.2c-35.3-2.3-59.9-24.6-85.2-48.9c-0.2,2.2-0.3,4.2-0.4,6c-0.4,0.3-0.6,0.7,0,0.5
	c-0.2,2.9-0.4,5.4-0.5,7.8c0,0.7-0.1,1.4-0.1,2.1c1.1,3.1,2.2,6.3,3.3,9.4C423.8,461.5,424.5,462.3,425.2,463.1z"/>
<path class="st1" d="M545.2,582.4c4.3-1.2,8.5-3,8.9-8.3c0.4-5.8-2.9-10-8.7-9.7c-4.8,0.2-9,3.2-12,7.3
	C538.1,574.3,538.5,581.7,545.2,582.4z"/>
<g>
	<g>
		<path class="st2" d="M509.1,631.6c-5.8-2.3-12.4-2.7-17.9-5.8c-3.9-2.2-6.8-5.8-10.4-8.5c-8.5-6.7-19.8-8.8-30.6-10.3
			c-5.2-0.7-10.4-1.4-15.5-2.5c2.7,6.1,7,11.4,10.2,17.3c3,5.4,5,11.4,8.3,16.6c6,9.3,15.7,15.5,25.3,20.9c5,2.8,10,5.5,15.3,7.4
			c13.1,4.8,29.7,5.8,43.1,1.3c-2.9-4.4-10.1-19.9-11.4-21.9C521.6,639.9,516.1,634.4,509.1,631.6z M536.4,616.3
			c-1.3-6.5-3.6-13.9-9.8-16.1c-5.8-2.1-13.2,1.3-18-2.6c-2.3-1.9-3.3-4.9-5.2-7.2c-4.3-5-11.9-4.7-18.4-3.9
			c-5.9,0.7-11.7,1.6-17.5,2.6c-10.5,1.9-21,4.3-30.5,9.2c-1.3,0.7-2.6,1.5-2.9,2.9c0,0,0,0,0,0c7.1,1,14.2,1.9,21.3,2.5
			c7.7,0.6,15.8,1.1,22.4,5.1c5.4,3.2,9.4,8.4,14.8,11.6c7,4.1,15.8,4.4,22.8,8.5c6.3,3.7,10.7,10,14.3,16.4
			c0.8,1.4,6.4,10.6,8.7,17.2C542.1,647.4,539.5,631.5,536.4,616.3z"/>
	</g>
</g>
<g>
	<g>
		<path class="st3" d="M669,825.7c-1.1-0.8-2.2-1.5-3.3-2.3c-9.7-5.3-19.6-10.3-29.1-16c-17.8-10.6-36.3-13.5-56.7-8.3
			c-46.8,12-93.7,23.5-140.7,34.8c-17.3,4.2-34.7,9.8-55,6.4c-0.3-0.1-0.7-0.1-1-0.2c0.3-0.1,0.6-0.2,0.9-0.3
			c34.4-10.2,66.7-19.8,98.7-29.2c-18.8-41.3-48.4-72.8-82.5-100.5c-13.9-11.3-25.4-24.5-35.1-39.5c-2.2-9.7-9.7-17.7-9.4-28.2
			c0.1-3.2-1.5-9.6,5.8-5c19.9,49,58.1,75.7,107.7,88.8c12.2,3.2,23.9,2.1,33-5.8c34.7-30.2,74.6-54,107.3-86.6
			c22.2-22.1,21.9-28.4-0.7-48.1c-0.1,0-0.1-0.1-0.2-0.1c-17.5-10.3-31.6-23-32.6-45.3c-0.2-4.2-4.1-9.5,2.2-11.7
			c5.8-2.1,7,4.1,9.7,7.4c1.9,2.3,3.9,4.6,5.8,6.8c0.3,0.7,0.7,1.3,1.1,2c7.2,13,17.1,22.4,31.9,25.4c1.1,0.2,2.3,0.4,3.5,0.6
			c4.1-1.5,9.4,1.3,12.7-3.3c18.1-10.7,22.6-24.1,17.3-51.4c-0.4-0.6-0.9-1.2-1.3-1.8c-2.6-3.6-5.2-7.2-7.8-10.8
			c-28.1-16.4-54.5-14.1-79.8,6.4c-3.2,2.6-5.6,5.4-7.1,8.5c-0.1,0.1-0.1,0.2-0.2,0.4c-1.4,3.1-1.9,6.6-1.4,10.7
			c1.4,12.6,2.5,25.2,3.4,37.8c0.3,5,0.5,10.3-0.6,15.1c-1.7,7-4.9,13.6-13,15.3c-8.9,1.9-12.1-5.3-17.5-10.8
			c23.8,0.9,27.5-2.7,24.6-27.1c-1.8-15.7-2.9-31.3-2.7-47c0.3-23.5,16.3-39,39.8-37.7c22.1,1.3,42.7,7.2,58.2,24.7
			c3.9,2.8,7.5,5.8,8.4,10.6c0.1,0.6,0.2,1.3,0.2,2c2.5,3.3,4.9,8.5,7-0.3c2.9-11.9,1.2-23.2-5-33.5c-2.7-4.4-6.5-8.9-5.4-13.7
			c4.3-17.6-7.3-23-20.1-27.9c-5.2-2-10.1-4.8-15.4-6.3c-14.3-4.1-24.3-10.3-17.5-27.9c1.1-2.9,0.2-7.4-1.4-10.3
			c-4.4-8.1-4.6-15,2.7-21.7c5.6-5.1,4.1-10.4-0.1-16.1c-9.5-12.7-40.4-21.8-53.6-13.3c-13.2,8.5-30.9,10.8-38.9,26.9
			c-1,2.1-5.1,3.5-7.8,3.7c-17.2,1.3-25.7,18.7-42.5,21.2c12.9,3.5,25.9,2.6,36.8,9.9c0.2,0.1,0.5,0.2,0.7,0.3
			c15.7,6.1,27.6,16.7,36.2,31.1c2.7,4.6,4.5,9.6-1.4,13c-5.1,2.9-8.7-0.8-11.1-4.7c-8-13.2-19.4-23-31.1-32.6
			c-0.7-0.6-1.4-1.2-2.2-1.8c-5-1.8-10.1-5.1-15.1-5c-6.2,0.2-15.1-5.8-18.6,5.2c-6,7.4-14.9,9.1-23.2,12.3
			c-15,5.7-29.3,12.4-37.9,27.1c-14.4,11.3-23.1,26.5-26.7,44.1c-1.4,6.9-4.2,11.4-10.6,13c-10.7,2.6-13.4,9.3-11.3,19.2
			c-0.6,3.6-0.6,7.5,2,10c10,9.4,6.6,19.7,3.1,30.5c-7.6,23.4-14.6,46.9-22,70.4c-1.3,4.3-2.7,7.9-4.2,11.1
			c-1.1,6.3-3.4,12.5-6.3,18.3c0.2,0,0.4-0.1,0.5-0.1c-0.1,0.2-0.1,0.5-0.2,0.7c-2.2,9.8-4.2,18.2-6.1,26.7c-5,14.3-6.8,29.3-9.7,44
			c-5.8,29.8-4.2,60.2-9.1,90.1c-0.8,4.8-0.2,11.3-8.9,12c1-3.9,4.1-6.9,1.5-10.4c-4.9,1.7-4.7,7.5-8.3,10.3
			c-0.3,0.6-0.6,1.2-0.9,1.8c-7.3,15.3-15.5,30.1-25.4,43.9c-3.9,5.5-8.6,9.6-15.1,11.2c83.5,5.2,166.6,25.6,250.2,20.1
			c48.3-3.2,96.5-14.9,144.5-9.3c20.2,2.4,40,7.8,60.3,7.9c22.3,0.2,44.4-6.4,63.3-18.1C732.3,868.4,700.1,847.7,669,825.7z
			 M545.4,564.5c5.8-0.3,9.1,3.9,8.7,9.7c-0.3,5.3-4.6,7.1-8.9,8.3c-6.8-0.7-7.2-8.1-11.9-10.7C536.3,567.6,540.6,564.7,545.4,564.5
			z M519.2,561c-10-7.4-22.7,4.7-26.8-10.2c-1.7-6.2,3.1-10.2,8.4-10C510.8,541.2,517.5,546.5,519.2,561z M420,449.2
			c0.2-2.4,0.3-4.9,0.5-7.8c-0.6,0.2-0.4-0.2,0-0.5c0.1-1.8,0.3-3.8,0.4-6c25.3,24.3,49.9,46.7,85.2,48.9c0.8,0.1,1.6,0.1,2.4,0.2
			c2.5,7.3,1.5,5.4-3.1,7.8c-30.5,16-49.9-6.8-72.2-19.6c-0.6-0.6-1.1-1.3-1.7-1.9c-2.1-2.4-4.2-4.8-6.4-7.2
			c-0.7-0.8-1.4-1.6-2.1-2.3c-1.1-3.1-2.2-6.3-3.3-9.4C419.9,450.6,419.9,449.9,420,449.2z M432.4,593.6c13.1-7.1,27.5-12,42.2-14.2
			c6.1-0.9,12.4-1.5,18.5-0.3c6.1,1.2,12,4.2,15.7,9.2c1.1,1.5,2,3.1,3.3,4.2c3.8,3.2,9.5,1.7,14.4,2.6c5.2,1,9.5,5,12,9.7
			c2.5,4.7,3.5,10.1,4.1,15.4c1.9,16.4,0.9,33.2-2.9,49.2c0,0.1-0.1,0.3-0.1,0.4c-0.1,0.2-0.1,0.5-0.2,0.7c0,0-0.1-0.1-0.1-0.1
			c-1.2,1.8-4.4,0.8-6.1,1.7c-6.7,3.7-14.7,4.4-22.3,3.4c-7.6-1-14.9-3.6-22-6.3c-10.2-3.9-20.4-8-29.5-14.1
			c-9.1-6.1-17-14.3-21.1-24.4c-3.3-8.2-4.3-17.9-10.7-24.1c-3-2.9-7.1-4.9-9.4-8.5C422.7,596.4,428.2,595.9,432.4,593.6z"/>
	</g>
</g>
<g>
	<g>
		<path class="st4" d="M427.7,606.8c6.4,6.2,7.3,15.8,10.7,24.1c4.1,10.1,12.1,18.3,21.1,24.4c9.1,6.1,19.3,10.2,29.5,14.1
			c7.2,2.7,14.4,5.3,22,6.3c7.6,1,15.6,0.3,22.3-3.4c1.7-0.9,4.9,0.1,6.1-1.7c0,0,0.1,0.1,0.1,0.1c0.1-0.2,0.1-0.5,0.2-0.7
			c0-0.1,0.1-0.2,0.1-0.4c3.8-16.1,4.8-32.8,2.9-49.2c-0.6-5.3-1.6-10.7-4.1-15.4c-2.5-4.7-6.8-8.7-12-9.7c-4.9-1-10.6,0.5-14.4-2.6
			c-1.4-1.2-2.3-2.8-3.3-4.2c-3.7-5-9.6-8-15.7-9.2c-6.1-1.2-12.4-0.7-18.5,0.3c-14.8,2.3-29.1,7.1-42.2,14.2
			c-4.2,2.3-9.7,2.8-14.1,4.7C420.5,601.9,424.6,603.9,427.7,606.8z M494,666.7c-5.3-2-10.4-4.6-15.3-7.4
			c-9.6-5.4-19.4-11.6-25.3-20.9c-3.3-5.2-5.4-11.1-8.3-16.6c-3.2-5.9-7.5-11.2-10.2-17.3c5.1,1.1,10.3,1.8,15.5,2.5
			c10.8,1.5,22,3.6,30.6,10.3c3.5,2.8,6.5,6.3,10.4,8.5c5.4,3.2,12,3.5,17.9,5.8c6.9,2.8,12.4,8.3,16.5,14.5
			c1.3,2,8.5,17.5,11.4,21.9C523.7,672.5,507.1,671.5,494,666.7z M434.1,601.3c0.3-1.4,1.7-2.3,2.9-2.9c9.4-5,20-7.4,30.5-9.2
			c5.8-1,11.6-1.9,17.5-2.6c6.5-0.8,14.1-1,18.4,3.9c1.9,2.2,2.9,5.3,5.2,7.2c4.8,3.9,12.2,0.5,18,2.6c6.2,2.2,8.5,9.7,9.8,16.1
			c3.2,15.2,5.7,31.1,2.1,46.2c-2.3-6.6-7.9-15.8-8.7-17.2c-3.6-6.4-7.9-12.7-14.3-16.4c-7-4.1-15.8-4.4-22.8-8.5
			c-5.4-3.2-9.4-8.4-14.8-11.6c-6.7-3.9-14.7-4.4-22.4-5.1C448.2,603.2,441.1,602.3,434.1,601.3
			C434.1,601.3,434.1,601.3,434.1,601.3z M910.4,480c6.7-3.3,8.3-12.8,5.2-19.6c-3-6.8-9.3-11.6-15.5-15.8c4.4-4.3,9-8.8,11.3-14.5
			c2.3-5.7,1.9-13.1-2.7-17.2c-1.5-1.4-3.5-2.4-4.5-4.3c-2.2-4.4,2.8-8.8,4.1-13.5c2-7.5-9.2-14.3-14.9-9c3.3-6.6,6.7-13.4,7.5-20.8
			c0.9-7.3-1.3-15.5-7.2-19.9c-4.1,4.2-6.1,10.4-5.2,16.2c-6.3,0-9.8-7.9-8.8-14.2c1-6.3,4.5-11.9,5.4-18.2s-2.7-14.2-9-14
			c-2.6,2.2-5.5,4.1-8.5,5.8c-0.8-1.7-1.4-3.4-1.9-5.2c5-2.6,8.8-6.1,9.8-11c2.2-10-6.4-18.7-12.2-27.2c-5.8-8.5-7-23.4,2.9-26.1
			c0.8-7.7-9.9-10.9-17.4-9.4s-16.3,4.7-22.3-0.2c-6.8-5.4-7.1-19.1-15.7-19.2c-2.8,0-5.4,1.7-8.2,1.9c-5.7,0.4-10.1-5.9-9.8-11.7
			c0.3-5.7,3.8-10.7,7.4-15.2c3.6,1.5,6.5,4.6,7.7,8.4c5.9-7.4,2.1-19.1-5.5-24.8c-7.6-5.7-17.5-6.9-26.8-7.9
			c1.7-6.9,3.4-14.1,1.5-20.9c-1.9-6.8-8.9-12.7-15.7-10.8c-5.9,1.6-9.4,8.2-15.2,10.3c-11,3.9-19.5-9.8-23.7-20.7
			s-14.8-23.8-24.9-17.9c2.9,4.1,5.8,8.2,8.7,12.2c-12.2,1.5-21.7-9.6-30.7-18c-9-8.4-25-14.1-32.2-4.2
			c-0.7-12.9-22.9-16.5-27.6-4.4c-7-4.3-11.1-13-10-21.1l8.4-4.9c-12.7-6.4-30.4,0.9-34.8,14.5c-6.4,2.6-13.2-2.5-17.4-8
			c-4.2-5.4-8.2-11.9-14.8-13.7c-6.6-1.8-14.8,6.5-10.1,11.5c-9.6,10.3-26.3,12.2-39.1,6.3c-7.7-3.6-14.9-9.7-23.5-9.3
			c-8.5,0.4-14.8,13.8-7,17.1c-14.5,0.8-28.9,4.2-42.2,10c-6.6-5.3-13.5-10.8-21.8-12.4c-8.3-1.6-18.3,2.2-20.7,10.3
			c3.9,0.9,7.8,1.7,11.7,2.6c4.6,6.2-6.1,12.8-13.6,11.6c-7.6-1.2-17.2-3.9-21.5,2.4c-1.5,2.1-1.9,4.9-3.1,7.1
			c-3.1,5.6-12,6.6-16.3,1.8s-2.4-13.5,3.5-16c-12-7.6-29.1,10.5-20.8,22c-3.7-3.4-9.9-0.6-12.8,3.5c-2.9,4.1-4.2,9.2-7.5,12.9
			c-7,7.8-19.6,6.1-29.8,3.7c-0.9,7.6,1.5,15.5,6.4,21.4c-6.6,8.9-24.1-0.3-20.6-10.7c-12.1,10-13.6,30.3-3.2,42
			c-3.5,5.4-11,6.3-17.4,5.7c-6.4-0.6-13.2-2-19,0.7s-8.8,11.9-3.5,15.4c-8.3,3.1-16.5,6.3-24.8,9.4c6.4,10-3.2,25.6-15.1,24.4
			c-4.4-0.7-7.4-6.1-5.6-10.2c-9.2,2.5-13.1,13.5-13.4,23.1c-0.3,13.8,4.3,27.7,12.9,38.6c-15.5,5.9-24.9,24.4-20.5,40.4
			c-1.4-4.6,5-9.3,9-6.6c0.6,9.4-6.5,17.2-11.2,25.3c-4.7,8.1-5.9,20.8,2.6,24.9c-15.2,7.5-24.5,25.6-21.7,42.4
			c-1.4-8.7,14.8-10,17.5-1.6c2.7,8.4-4.9,16.9-13.2,19.7c-3.5,1.2-7.4,2-9.6,4.9c-6.6,9,11.8,19.5,8.8,30.3c-1.1,4-5,6.7-6.2,10.7
			c-3.6,11.9,18.4,19.9,15.4,32.1c-0.9,3.9-4.3,6.6-7.1,9.5c-11.6,12.2-13.7,32.4-4.9,46.7c9.2-5.1,13.5-17.5,9.5-27.2
			c2.7-3.1,6.6,2.6,6.8,6.7c0.7,16,1.3,32.1,2,48.1c7.4,0.1,14.8,0.1,22.2,0.2c-2.6,12.5-5.2,25-7.8,37.6c5-3.1,12,0.2,14.9,5.3
			c3,5.1,3,11.3,3,17.2c8.2-2.8,13.6-12.2,11.7-20.7c13.8,20.4,17.5,47.4,9.7,70.8c8.6,3.3,18.2-8.5,13.1-16.3
			c13.1-2.1,25.2,13.9,19.6,26c4.8-1.2,9-4.5,11.4-8.8c7.7,2.3,11.9,12.2,8.3,19.4c2.8-5.3,8.4-9,14.4-9.5
			c4.3,7.4,8.6,14.8,12.9,22.2c8.4-3.5,13.2-12,14.5-21.2c1,2.3,1.2,5.3,1.1,8.7c-1.3,31.3-1.6,62.7-19.6,90.4
			c0,0.1-0.1,0.1-0.1,0.2c-13.7,20.1-18.8,47.2-49.1,56.3c-0.6,0.2-1.1,0.4-1.7,0.5c6.5,1.4,11.7,1.4,16.1,0.2
			c6.5-1.7,11.1-5.8,15.1-11.2c9.9-13.8,18-28.6,25.4-43.9c0.3-0.6,0.6-1.2,0.9-1.8c3.5-2.8,3.4-8.6,8.3-10.3
			c2.5,3.5-0.6,6.5-1.5,10.4c8.8-0.7,8.2-7.3,8.9-12c4.9-29.8,3.2-60.3,9.1-90.1c2.9-14.8,4.6-29.7,9.7-44
			c1.9-8.4,3.9-16.9,6.1-26.7c0.1-0.2,0.1-0.5,0.2-0.7c-0.2,0-0.4,0.1-0.5,0.1c-0.2,0-0.4,0.1-0.6,0.1c-25.3,6.1-48.4,7.4-63.9-17.6
			c-17.5-26.2-13.9-53-2.2-80.1c5.5-15.9,14.9-28.6,30.4-36.2c-10.2,12.7-19.5,25.9-27.4,40c-7.5,24.3-10.9,48.6,2.1,72.3
			c8.6,10.4,18.4,18.1,32.8,18.9c19.6,1,28.4-2.2,35-15.8c1.5-3.1,2.9-6.8,4.2-11.1c7.3-23.5,14.4-47,22-70.4
			c3.5-10.8,6.9-21.1-3.1-30.5c-2.7-2.5-2.6-6.4-2-10c-2.1-9.8,0.5-16.6,11.3-19.2c6.3-1.5,9.1-6,10.6-13
			c3.6-17.6,12.3-32.7,26.7-44.1c8.6-14.6,23-21.4,37.9-27.1c8.3-3.1,17.2-4.8,23.2-12.3c3.4-11,12.3-5,18.6-5.2
			c5-0.2,10.1,3.2,15.1,5c0.7,0.6,1.4,1.2,2.2,1.8c11.7,9.6,23.1,19.4,31.1,32.6c2.4,3.9,5.9,7.6,11.1,4.7c5.9-3.4,4.1-8.4,1.4-13
			c-8.6-14.4-20.5-25-36.2-31.1c-0.2-0.1-0.5-0.2-0.7-0.3c-10.9-7.3-23.9-6.4-36.8-9.9c16.8-2.5,25.4-19.9,42.5-21.2
			c2.8-0.2,6.8-1.6,7.8-3.7c8.1-16.2,25.8-18.4,38.9-26.9c13.2-8.5,44.2,0.6,53.6,13.3c4.2,5.6,5.7,11,0.1,16.1
			c-7.4,6.6-7.1,13.5-2.7,21.7c1.6,2.9,2.5,7.4,1.4,10.3c-6.8,17.5,3.2,23.7,17.5,27.9c5.3,1.5,10.2,4.3,15.4,6.3
			c12.9,4.9,24.4,10.3,20.1,27.9c-1.2,4.8,2.7,9.3,5.4,13.7c6.2,10.3,7.9,21.6,5,33.5c-2.1,8.7-4.6,3.6-7,0.3c0-0.7-0.1-1.4-0.2-2
			c-0.9-4.8-4.5-7.8-8.4-10.6c-15.4-17.5-36.1-23.4-58.2-24.7c-23.5-1.4-39.5,14.1-39.8,37.7c-0.2,15.7,0.9,31.3,2.7,47
			c2.9,24.4-0.8,28-24.6,27.1c5.4,5.4,8.6,12.7,17.5,10.8c8.1-1.8,11.3-8.3,13-15.3c1.2-4.8,1-10.1,0.6-15.1
			c-0.9-12.6-1.9-25.2-3.4-37.8c-0.5-4.1,0-7.6,1.4-10.7c0.1-0.1,0.1-0.2,0.2-0.4c1.5-3.1,3.8-5.9,7.1-8.5
			c25.3-20.5,51.7-22.8,79.8-6.4c2.6,3.6,5.2,7.2,7.8,10.8c0.4,0.6,0.9,1.2,1.3,1.8c5.3,27.3,0.8,40.8-17.3,51.4
			c-3.3,4.6-8.6,1.8-12.7,3.3c-1.2-0.2-2.3-0.4-3.5-0.6c-14.8-3.1-24.7-12.5-31.9-25.4c-0.4-0.7-0.7-1.3-1.1-2
			c-1.9-2.3-3.9-4.5-5.8-6.8c-2.7-3.2-3.9-9.5-9.7-7.4c-6.3,2.2-2.4,7.5-2.2,11.7c1,22.3,15.1,35,32.6,45.3c0.1,0,0.1,0.1,0.2,0.1
			c22.6,19.7,22.8,26,0.7,48.1c-32.7,32.6-72.6,56.4-107.3,86.6c-9.1,7.9-20.7,9.1-33,5.8c-49.6-13.1-87.8-39.9-107.7-88.8
			c-7.3-4.5-5.7,1.8-5.8,5c-0.3,10.5,7.2,18.5,9.4,28.2c9.7,15,21.2,28.2,35.1,39.5c34.1,27.7,63.7,59.1,82.5,100.5
			c-32,9.5-64.3,19-98.7,29.2c-0.3,0.1-0.6,0.2-0.9,0.3c0.3,0.1,0.7,0.1,1,0.2c20.3,3.4,37.7-2.2,55-6.4
			c47-11.3,93.9-22.8,140.7-34.8c20.3-5.2,38.8-2.3,56.7,8.3c9.5,5.7,19.4,10.7,29.1,16c1.1,0.8,2.2,1.5,3.3,2.3
			c31.1,22.1,63.3,42.7,90.6,69.8c0.1,0.1,0.2,0.2,0.3,0.2c0.7,0.7,2.9,0.1,4.4,0c-0.2-1-0.4-1.9-0.7-2.8c0,0,0-0.1,0-0.1
			c-3.7-12.1-15.1-18.2-23.2-26.8c-5.4-5.7-11.6-10.7-17.7-15.8c-1.2-1-2.5-2.1-3.7-3.1c-10.8-7.7-21.7-15.3-32.5-23
			c-0.5-0.3-0.9-0.7-1.4-1c-0.9-1.4-1.8-2.7-2.8-4.1c-0.7-0.4-1.3-0.9-2-1.3c3.3-1,6.2-3.8,7.1-7.1c0.5-1.7,0.5-3.5,1.2-5.2
			c2.1-5.2,9.5-6.2,14.4-3.5c4.8,2.8,7.6,8.1,10,13.1c5-4.3,6.3-12.2,2.9-17.9c6.2-9.2,23.4-5.8,25.6,5c6.9-1.6,6.7-11.3,9.2-18
			c3.2-8.6,13.1-13.3,22.3-13.1s17.8,4.2,26,8.5c-4-10.3-8-20.7-12-31c0.7-3.4,2-6.4,3.7-9.1c10.8-2.8,22.7-1.5,32.6,3.8
			c5.2-5.9,0.8-17-7-17.8c4.2-6.3,8.8-13,15.9-15.6c7.1-2.6,17,1.8,16.8,9.4c7-6.5,6.2-19.4-1.5-25c-1.7-1.2-3.7-2.3-4.6-4.2
			c-0.8-1.7-0.3-3.8,0.3-5.6c4.4-12,19-19.1,31.2-15.3c6.7-2.3,10.5-9.8,10.6-16.9c0.1-7.1-2.6-13.9-5.3-20.4
			c-0.3,2.9-3.8,5-6.4,3.8c-2-5.1,1.7-10.6,5.8-14c4.2-3.5,9.2-6.2,11.8-11.1s0.3-12.5-5.1-12.6c-0.1,3.4-2.8,6.6-6.2,7.2
			c-4-4.9-6.3-11.5-5.5-17.6c0.7-2.4,1.6-4.7,2.7-6.9c4.1-5.6,12.3-8.3,18-4.3c3.7-13.6-1.6-29.2-12.8-37.8c0-0.1,0-0.2-0.1-0.3
			c8.4-6.9,21.2-7.9,30.6-2.4c-6.1-22.1-12.2-44.1-18.4-66.2C900.9,466.6,910.3,472.4,910.4,480z M597.2,756.6
			c-25.1,31.2-55.9,36.7-83.3,14.8c-11.7-8.8-21.4-18.8-19.4-35.3c6.6,11.6,13,23.3,23.1,32.3c30.2,16.4,47.4,12.8,75.7-15.8
			c10.2-13.6,12.2-30.3,18.3-45.6C614.3,725.6,609.5,742.1,597.2,756.6z M545.2,582.4c4.3-1.2,8.5-3,8.9-8.3c0.4-5.8-2.9-10-8.7-9.7
			c-4.8,0.2-9,3.2-12,7.3C538.1,574.3,538.5,581.7,545.2,582.4z M492.5,550.8c4.1,14.9,16.8,2.7,26.8,10.2
			c-1.7-14.5-8.4-19.8-18.3-20.2C495.5,540.6,490.7,544.6,492.5,550.8z M419.8,451.3c1.1,3.1,2.2,6.3,3.3,9.4
			c0.7,0.8,1.4,1.6,2.1,2.3c2.1,2.4,4.2,4.8,6.4,7.2c0.6,0.6,1.1,1.3,1.7,1.9c22.3,12.8,41.7,35.5,72.2,19.6
			c4.7-2.4,5.7-0.6,3.1-7.8c-0.8,0-1.6-0.1-2.4-0.2c-35.3-2.3-59.9-24.6-85.2-48.9c-0.2,2.2-0.3,4.2-0.4,6c-0.4,0.3-0.6,0.7,0,0.5
			c-0.2,2.9-0.4,5.4-0.5,7.8C419.9,449.9,419.9,450.6,419.8,451.3z"/>
	</g>
</g>
</svg>
