<svg xmlns="http://www.w3.org/2000/svg" width="744" height="1052" viewBox="0 0 744.09448819 1052.3622047">
  <g transform="matrix(2.8742992,0,0,2.8742992,-428.02718,-913.31942)">
    <path d="m 275.00562,379.96625 c 0,0 -3.68288,14.10168 -8.27896,19.43757 -4.18222,4.85542 -9.89839,9.92724 -11.33329,15.7145 -1.62268,15.76725 14.52127,23.70382 14.21293,40.79844" fill="none" stroke="#000" stroke-width="3" stroke-linecap="round" stroke-linejoin="miter"/>
    <path d="m 321.07984,423.16085 c 0,0 5.64612,-2.27529 7.1991,-4.67941 0.85632,-1.32563 1.5173,-3.31753 0.71991,-4.67942 -0.51797,-0.88467 -1.8943,-1.36276 -2.87964,-1.07986 -2.46808,0.70861 -3.6903,3.74959 -4.67942,6.11923 -1.67984,4.0244 -1.86647,8.59797 -1.79977,12.95838 -0.42654,14.69098 1.26689,23.15191 7.45363,36.78467 -7.27942,3.84723 -10.92095,15.60349 -10.92747,21.65022 l -4.63623,-11.73031 -1.77104,38.58836 c 0,0 -1.24914,34.97481 -2.02994,49.36181 -0.82463,15.19446 -0.6887,26.89021 -1.96265,40.26774 -2.00848,10.8576 -8.63847,24.46151 -20.6965,22.36217 -3.51485,-0.6825 -7.45221,-2.99035 -8.6539,-6.36317 -4.88731,-13.71737 4.58722,-5.32219 5.63576,-8.56656 1.43708,-4.44659 0.41354,-9.33699 0.59639,-14.00646 0.5126,-13.09064 1.12818,-26.49828 1.40364,-39.27695 0.29291,-13.58855 1.49594,-29.6228 0.76359,-43.015 -1.37072,-25.06596 -2.74144,-26.68396 -4.11215,-40.02594 l -4.10861,11.886 c 0,0 -2.06336,-9.18156 -3.74865,-11.48238 -2.215,-3.02401 -8.63892,-7.1991 -8.63892,-7.1991 4.78216,-10.65424 7.87871,-22.27165 7.84447,-36.60094 -0.0745,-3.84503 -0.33183,-14.37914 -4.75397,-19.3231 -1.50924,-1.68733 -3.7961,-3.21414 -6.37376,-2.345 -3.3856,3.40812 1.07981,7.01575 3.85408,8.10428 l 5.99571,2.3525" fill="none" stroke="#000" stroke-width="3" stroke-linecap="round" stroke-linejoin="round"/>
    <path d="m 254.94608,520.83218 c 4.57719,8.3709 11.25655,17.50936 20.412,19.67091 0,0 -8.27394,-15.43581 -10.71131,-21.99783 -4.5784,-12.32622 2.74135,-25.78542 8.57716,-36.65365 -1.57596,-5.61166 -5.89166,-6.91013 -9.49888,-9.60056 -9.98274,12.37963 -16.45508,34.27863 -8.77897,48.58113 z" fill="none" stroke="#000" stroke-width="3" stroke-linecap="butt" stroke-linejoin="miter"/>
    <path d="m 256.28796,365.20809 c -9.739,11.57437 -41.12959,14.60168 -51.87043,27.34996 -11.75171,13.94808 -17.37138,42.10488 -20.12057,64.43858 -2.99967,24.36857 2.01507,46.92204 4.24711,73.53496 6.3267,44.37711 2.13888,85.08643 -1.43983,129.07604 l 37.95937,0 c 0,0 -10.69979,-33.07596 -11.6209,-57.3127 -0.92111,-24.23674 -5.15185,-52.59763 24.12759,-63.94847 0,0 4.26089,41.43297 5.56341,58.43623 1.65612,21.61911 -3.77423,62.82494 -3.77423,62.82494 l 42.82405,0 c 0,0 -19.86176,-35.12927 -10.77746,-82.38603 2.58254,-13.43442 13.56312,-34.58107 13.56312,-34.58107 m 23.81113,0.1882 c 0,0 7.62241,22.13025 8.7,33.67296 2.5807,27.64345 -5.54844,83.10594 -5.54844,83.10594 l 39.94443,0 c -6.61548,-8.07181 -12.08409,-48.90763 -6.87971,-74.08148 5.96372,-28.84684 9.31337,-63.51241 8.18102,-90.74484 -0.38693,-9.30558 -7.62081,-49.73851 -7.62081,-51.00508" fill="none" stroke="#000" stroke-width="3" stroke-linecap="round" stroke-linejoin="round"/>
    <path d="m 342.29766,496.96463 c 1.24638,7.28223 -1.5193,16.55034 -3.63859,21.86368 -3.37285,8.92449 -8.48437,17.91182 -17.25189,21.32139 0,0 9.13525,-17.45117 10.63964,-24.28767 2.82587,-12.84181 -5.37153,-26.01638 -12.65729,-35.97091 1.5049,-4.36329 2.97382,-9.31123 6.73982,-12.24776 6.72364,5.47953 14.28541,18.32004 16.16831,29.32127 z" fill="none" stroke="#000" stroke-width="3" stroke-linecap="butt" stroke-linejoin="miter"/>
    <path d="m 321.61174,453.57659 c 13.78099,-9.05849 39.28974,-15.98732 55.62111,-17.79173 0.94749,-15.97456 11.2403,-38.29279 -13.8018,-55.22222 -6.98258,-4.09585 -20.57575,-0.64652 -25.49505,-7.07558 -4.55973,-5.95914 -7.43768,-15.45711 -14.3982,-20.15748 -9.93051,-5.41694 -18.84966,-4.36228 -28.79641,0.35995 -10.67086,-4.65264 -22.54732,-4.20423 -31.91247,3.41428 -6.65496,5.6017 -5.79429,13.19919 -12.362,18.90293 -6.42112,5.57645 -16.82695,4.42917 -23.75703,9.35884 -21.50969,14.83363 -16.56589,32.79155 -16.91788,50.75365 21.18992,1.66536 39.09417,10.21093 58.41065,17.36518" fill="none" stroke="#000" stroke-width="3" stroke-linecap="round" stroke-linejoin="miter"/>
    <path d="m 315.12555,378.48601 c 0,0 3.32867,14.10168 7.92475,19.43757 4.18222,4.85542 10.2526,10.28145 11.6875,16.06871 1.62268,15.76725 -12.37599,21.88714 -12.06765,38.98176" fill="none" stroke="#000" stroke-width="3" stroke-linecap="round" stroke-linejoin="miter"/>
  </g>
</svg>
