<svg xmlns="http://www.w3.org/2000/svg" width="1200" height="1600" viewBox="0 0 1200 1600">
  <defs>
    <linearGradient id="bg" x1="0" y1="0" x2="1" y2="1">
      <stop offset="0" stop-color="#fff8ef"/>
      <stop offset="1" stop-color="#f6ead5"/>
    </linearGradient>
    <linearGradient id="panel" x1="0" y1="0" x2="0" y2="1">
      <stop offset="0" stop-color="#ffffff"/>
      <stop offset="1" stop-color="#f6f2ea"/>
    </linearGradient>
    <linearGradient id="browserTop" x1="0" y1="0" x2="0" y2="1">
      <stop offset="0" stop-color="#e8eef5"/>
      <stop offset="1" stop-color="#d7e3ef"/>
    </linearGradient>
    <linearGradient id="emerald" x1="0" y1="0" x2="1" y2="1">
      <stop offset="0" stop-color="#9bf23c"/>
      <stop offset="0.55" stop-color="#59b300"/>
      <stop offset="1" stop-color="#2c7e00"/>
    </linearGradient>
    <filter id="shadow" x="-20%" y="-20%" width="140%" height="140%">
      <feDropShadow dx="0" dy="10" stdDeviation="10" flood-color="#6b5140" flood-opacity="0.2"/>
    </filter>
    <marker id="arrow" viewBox="0 0 10 10" refX="9" refY="5" markerWidth="5" markerHeight="5" orient="auto-start-reverse">
      <path d="M0 0 L10 5 L0 10 z" fill="#503a33"/>
    </marker>
  </defs>

  <rect width="1200" height="1600" fill="url(#bg)"/>
  <rect x="54" y="54" width="1092" height="1492" rx="40" fill="none" stroke="#3f3028" stroke-width="10"/>

  <g opacity="0.22">
    <circle cx="180" cy="190" r="90" fill="#ffdfb8"/>
    <circle cx="1020" cy="250" r="110" fill="#d7efc4"/>
    <circle cx="980" cy="1380" r="140" fill="#d8e8ff"/>
    <circle cx="170" cy="1320" r="120" fill="#f8d4dd"/>
  </g>

  <text x="600" y="170" text-anchor="middle" font-family="Georgia, serif" font-size="68" font-weight="700" fill="#332720">Snakes and Ladders</text>
  <text x="600" y="240" text-anchor="middle" font-family="Georgia, serif" font-size="30" fill="#6a5548">A funny comic-book cover for the gemstone-py Python Bridge</text>

  <g transform="translate(90 400)">
    <rect x="0" y="0" width="340" height="300" rx="28" fill="#ffffff" stroke="#3b4c5b" stroke-width="7"/>
    <rect x="0" y="0" width="340" height="56" rx="28" fill="url(#browserTop)" stroke="#3b4c5b" stroke-width="7"/>
    <path d="M0 56 H340" stroke="#3b4c5b" stroke-width="7"/>
    <circle cx="38" cy="28" r="9" fill="#ff9da2"/>
    <circle cx="68" cy="28" r="9" fill="#ffd774"/>
    <circle cx="98" cy="28" r="9" fill="#8ed18e"/>
    <rect x="122" y="16" width="180" height="24" fill="#f4f7fb" stroke="#b4c3d1" stroke-width="2"/>
    <text x="132" y="33" text-anchor="start" textLength="158" lengthAdjust="spacingAndGlyphs" font-family="Helvetica, Arial, sans-serif" font-size="12" fill="#587086">https://app.example/please-be...</text>
    <rect x="28" y="86" width="284" height="34" rx="16" fill="#f2f7ff"/>
    <text x="170" y="109" text-anchor="middle" font-family="Helvetica, Arial, sans-serif" font-size="18" font-weight="700" fill="#2f567c">Browser</text>
    <rect x="30" y="146" width="176" height="18" rx="9" fill="#d3e3f3"/>
    <rect x="30" y="180" width="256" height="18" rx="9" fill="#bfd5ec"/>
    <rect x="30" y="214" width="214" height="18" rx="9" fill="#dce8f4"/>
    <rect x="30" y="252" width="118" height="28" rx="14" fill="#ffefc8" stroke="#b68b35" stroke-width="2.5"/>
    <text x="89" y="271" text-anchor="middle" font-family="Helvetica, Arial, sans-serif" font-size="16" fill="#8d6512">GET /state</text>
  </g>

  <image x="538" y="526" width="285" height="88" href="python-bright-green.svg" preserveAspectRatio="xMidYMid meet"/>
  <text x="680" y="728" text-anchor="middle" font-family="Helvetica, Arial, sans-serif" font-size="28" font-weight="700" fill="#2e7f18">Python</text>

  <g transform="translate(916 432)">
    <image x="10" y="18" width="184" height="260" href="emerald-logo.svg" preserveAspectRatio="xMidYMid meet"/>
    <text x="100" y="296" text-anchor="middle" font-family="Helvetica, Arial, sans-serif" font-size="28" font-weight="700" fill="#386d15">Gemstone</text>
  </g>

  <path d="M450 539 C476 539 502 539 530 539" fill="none" stroke="#503a33" stroke-width="1.8" stroke-linecap="round" marker-end="url(#arrow)"/>
  <path d="M530 604 C502 604 476 604 450 604" fill="none" stroke="#503a33" stroke-width="1.8" stroke-linecap="round" marker-end="url(#arrow)"/>
  <path d="M830 539 C856 539 882 539 910 539" fill="none" stroke="#503a33" stroke-width="1.8" stroke-linecap="round" marker-end="url(#arrow)"/>
  <path d="M910 604 C882 604 856 604 830 604" fill="none" stroke="#503a33" stroke-width="1.8" stroke-linecap="round" marker-end="url(#arrow)"/>

  <g>
    <text x="600" y="1272" text-anchor="middle" textLength="820" lengthAdjust="spacingAndGlyphs" font-family="Georgia, serif" font-size="34" fill="#5d483a">A web browser asks polite questions.</text>
    <text x="600" y="1324" text-anchor="middle" font-family="Georgia, serif" font-size="34" fill="#5d483a">Python does the clever legwork.</text>
    <text x="600" y="1376" text-anchor="middle" font-family="Georgia, serif" font-size="34" fill="#5d483a">The Gemstone remembers everything and forgives nothing.</text>
  </g>
</svg>
