<svg xmlns="http://www.w3.org/2000/svg" width="1200" height="1600" viewBox="0 0 1200 1600">
  <defs>
    <linearGradient id="bg" x1="0" y1="0" x2="1" y2="1">
      <stop offset="0" stop-color="#fff8ef"/>
      <stop offset="1" stop-color="#f6ead5"/>
    </linearGradient>
    <linearGradient id="browserTop" x1="0" y1="0" x2="0" y2="1">
      <stop offset="0" stop-color="#e8eef5"/>
      <stop offset="1" stop-color="#d7e3ef"/>
    </linearGradient>
    <filter id="shadow" x="-20%" y="-20%" width="140%" height="140%">
      <feDropShadow dx="0" dy="10" stdDeviation="10" flood-color="#6b5140" flood-opacity="0.2"/>
    </filter>
    <marker id="arrow" viewBox="0 0 10 10" refX="9" refY="5" markerWidth="5" markerHeight="5" orient="auto-start-reverse">
      <path d="M0 0 L10 5 L0 10 z" fill="#503a33"/>
    </marker>
  </defs>

  <rect width="1200" height="1600" fill="url(#bg)"/>
  <rect x="54" y="54" width="1092" height="1492" rx="40" fill="none" stroke="#3f3028" stroke-width="10"/>

  <!-- Decorative background blobs -->
  <g opacity="0.22">
    <circle cx="180" cy="190" r="90" fill="#ffdfb8"/>
    <circle cx="1020" cy="250" r="110" fill="#d7efc4"/>
    <circle cx="980" cy="1380" r="140" fill="#d8e8ff"/>
    <circle cx="170" cy="1320" r="120" fill="#f8d4dd"/>
  </g>

  <!-- ── Title ── -->
  <text x="600" y="130" text-anchor="middle" font-family="Georgia, serif" font-size="68" font-weight="700" fill="#332720">Snakes and Ladders</text>
  <!-- ── Graphic: browser (left), Python (centre), Gemstone (right) ── -->
  <!-- Browser panel: translate(90, 220) → occupies x=90..430, y=220..520 -->
  <g transform="translate(90 220)">
    <rect x="0" y="0" width="340" height="300" rx="28" fill="#ffffff" stroke="#3b4c5b" stroke-width="7"/>
    <rect x="0" y="0" width="340" height="56" rx="28" fill="url(#browserTop)" stroke="#3b4c5b" stroke-width="7"/>
    <path d="M0 56 H340" stroke="#3b4c5b" stroke-width="7"/>
    <circle cx="38" cy="28" r="9" fill="#ff9da2"/>
    <circle cx="68" cy="28" r="9" fill="#ffd774"/>
    <circle cx="98" cy="28" r="9" fill="#8ed18e"/>
    <rect x="122" y="16" width="180" height="24" fill="#f4f7fb" stroke="#b4c3d1" stroke-width="2"/>
    <text x="132" y="33" text-anchor="start" textLength="158" lengthAdjust="spacingAndGlyphs" font-family="Helvetica, Arial, sans-serif" font-size="12" fill="#587086">https://app.example/please-be...</text>
    <rect x="28" y="86" width="284" height="34" rx="16" fill="#f2f7ff"/>
    <text x="170" y="109" text-anchor="middle" font-family="Helvetica, Arial, sans-serif" font-size="18" font-weight="700" fill="#2f567c">Browser</text>
    <rect x="30" y="146" width="176" height="18" rx="9" fill="#d3e3f3"/>
    <rect x="30" y="180" width="256" height="18" rx="9" fill="#bfd5ec"/>
    <rect x="30" y="214" width="214" height="18" rx="9" fill="#dce8f4"/>
    <rect x="30" y="252" width="118" height="28" rx="14" fill="#ffefc8" stroke="#b68b35" stroke-width="2.5"/>
    <text x="89" y="271" text-anchor="middle" font-family="Helvetica, Arial, sans-serif" font-size="16" fill="#8d6512">GET /state</text>
  </g>

  <!-- Python logo: centred around x=680, top at y=350 -->
  <image x="538" y="350" width="285" height="88" href="python-bright-green.svg" preserveAspectRatio="xMidYMid meet"/>
  <text x="680" y="466" text-anchor="middle" font-family="Helvetica, Arial, sans-serif" font-size="28" font-weight="700" fill="#2e7f18">Python</text>

  <!-- Gemstone logo: translate(916, 252) → occupies x=916..1110, y=252..548 -->
  <g transform="translate(916 252)">
    <image x="10" y="18" width="184" height="260" href="emerald-logo.svg" preserveAspectRatio="xMidYMid meet"/>
    <text x="100" y="296" text-anchor="middle" font-family="Helvetica, Arial, sans-serif" font-size="28" font-weight="700" fill="#386d15">Gemstone</text>
  </g>

  <!-- Arrows at mid-height of graphic ≈ y=370 -->
  <path d="M450 370 C476 370 502 370 530 370" fill="none" stroke="#503a33" stroke-width="1.8" stroke-linecap="round" marker-end="url(#arrow)"/>
  <path d="M530 420 C502 420 476 420 450 420" fill="none" stroke="#503a33" stroke-width="1.8" stroke-linecap="round" marker-end="url(#arrow)"/>
  <path d="M830 370 C856 370 882 370 910 370" fill="none" stroke="#503a33" stroke-width="1.8" stroke-linecap="round" marker-end="url(#arrow)"/>
  <path d="M910 420 C882 420 856 420 830 420" fill="none" stroke="#503a33" stroke-width="1.8" stroke-linecap="round" marker-end="url(#arrow)"/>

  <!-- ── Table of contents ── starts y=640, 7 rows × 72px = 504px, ends y=1192 -->
  <text x="600" y="638" text-anchor="middle" font-family="Georgia, serif" font-size="40" font-weight="700" fill="#3f3028">Table of Contents</text>
  <line x1="120" y1="656" x2="1080" y2="656" stroke="#3f3028" stroke-width="3"/>

  <!-- Row height 72px: rect y, title text y = rect+28, subtitle y = rect+56 -->

  <rect x="100" y="664" width="1000" height="72" rx="14" fill="#fff8ef"/>
  <text x="140" y="692" font-family="Georgia, serif" font-size="26" font-weight="700" fill="#6a5548">Part I</text>
  <text x="260" y="692" font-family="Georgia, serif" font-size="26" fill="#3f3028">Why gemstone-py exists</text>
  <text x="140" y="720" font-family="Helvetica, Arial, sans-serif" font-size="20" fill="#8a7060">Motivation, temperament, and what you should not expect</text>

  <rect x="100" y="736" width="1000" height="72" rx="14" fill="#f4ede0"/>
  <text x="140" y="764" font-family="Georgia, serif" font-size="26" font-weight="700" fill="#6a5548">Part II</text>
  <text x="260" y="764" font-family="Georgia, serif" font-size="26" fill="#3f3028">Sessions and Transactions</text>
  <text x="140" y="792" font-family="Helvetica, Arial, sans-serif" font-size="20" fill="#8a7060">Lifecycles, policies, scopes, and why aborts are not shameful</text>

  <rect x="100" y="808" width="1000" height="72" rx="14" fill="#fff8ef"/>
  <text x="140" y="836" font-family="Georgia, serif" font-size="26" font-weight="700" fill="#6a5548">Part III</text>
  <text x="260" y="836" font-family="Georgia, serif" font-size="26" fill="#3f3028">PersistentRoot and Friends</text>
  <text x="140" y="864" font-family="Helvetica, Arial, sans-serif" font-size="20" fill="#8a7060">The entry points: roots, collections, stores, logs</text>

  <rect x="100" y="880" width="1000" height="72" rx="14" fill="#f4ede0"/>
  <text x="140" y="908" font-family="Georgia, serif" font-size="26" font-weight="700" fill="#6a5548">Part IV</text>
  <text x="260" y="908" font-family="Georgia, serif" font-size="26" fill="#3f3028">Queries, Stores and Logs</text>
  <text x="140" y="936" font-family="Helvetica, Arial, sans-serif" font-size="20" fill="#8a7060">When to use GSCollection, GStore, and ObjectLog</text>

  <rect x="100" y="952" width="1000" height="72" rx="14" fill="#fff8ef"/>
  <text x="140" y="980" font-family="Georgia, serif" font-size="26" font-weight="700" fill="#6a5548">Part V</text>
  <text x="260" y="980" font-family="Georgia, serif" font-size="26" fill="#3f3028">Web Apps and Request Lifecycles</text>
  <text x="140" y="1008" font-family="Helvetica, Arial, sans-serif" font-size="20" fill="#8a7060">Flask integration, session pools, and teardown as moral choice</text>

  <rect x="100" y="1024" width="1000" height="72" rx="14" fill="#f4ede0"/>
  <text x="140" y="1052" font-family="Georgia, serif" font-size="26" font-weight="700" fill="#6a5548">Part VI</text>
  <text x="260" y="1052" font-family="Georgia, serif" font-size="26" fill="#3f3028">Concurrency, Conflicts and Retries</text>
  <text x="140" y="1080" font-family="Helvetica, Arial, sans-serif" font-size="20" fill="#8a7060">RCCounter, RCQueue, CommitConflictError, and the café</text>

  <rect x="100" y="1096" width="1000" height="72" rx="14" fill="#fff8ef"/>
  <text x="140" y="1124" font-family="Georgia, serif" font-size="26" font-weight="700" fill="#6a5548">Part VII</text>
  <text x="260" y="1124" font-family="Georgia, serif" font-size="26" fill="#3f3028">Benchmarks, Releases and Operator Survival</text>
  <text x="140" y="1152" font-family="Helvetica, Arial, sans-serif" font-size="20" fill="#8a7060">Measurement, publishing, CI, self-hosted runners, and the full lifecycle</text>

  <line x1="120" y1="1176" x2="1080" y2="1176" stroke="#3f3028" stroke-width="2"/>

  <!-- ── Bottom taglines ── y=1220..1310 -->
  <text x="600" y="1242" text-anchor="middle" font-family="Georgia, serif" font-size="34" fill="#5d483a">A web browser asks polite questions.</text>
  <text x="600" y="1292" text-anchor="middle" font-family="Georgia, serif" font-size="34" fill="#5d483a">Python does the clever legwork.</text>
  <text x="600" y="1342" text-anchor="middle" font-family="Georgia, serif" font-size="34" fill="#5d483a">The Gemstone remembers everything and forgives nothing.</text>

  <!-- ── pip install badge ── y=1390..1450, well inside border (border ends y=1546) -->
  <rect x="340" y="1390" width="520" height="66" rx="22" fill="#3f3028"/>
  <text x="600" y="1433" text-anchor="middle" font-family="Menlo, Consolas, monospace" font-size="28" fill="#f6ead5">pip install gemstone-py</text>
</svg>
