<svg xmlns="http://www.w3.org/2000/svg" width="980" height="620" viewBox="0 0 980 620">
  <rect width="980" height="620" fill="#fcf4e8"/>
  <text x="50" y="70" font-family="Georgia, serif" font-size="30" fill="#34271f">Cartoon: The Hat Trick Queue</text>
  <rect x="70" y="120" width="840" height="440" rx="24" fill="#fffaf2" stroke="#34271f" stroke-width="4"/>
  <ellipse cx="300" cy="420" rx="130" ry="40" fill="#1f2937"/>
  <rect x="180" y="250" width="240" height="180" rx="24" fill="#111827"/>
  <rect x="210" y="210" width="180" height="60" rx="12" fill="#111827"/>

  <circle cx="650" cy="220" r="48" fill="#f0c9a5" stroke="#34271f" stroke-width="4"/>
  <rect x="600" y="260" width="100" height="170" rx="16" fill="#cfe8ff" stroke="#34271f" stroke-width="4"/>

  <path d="M470 310 C540 310 550 300 600 300" stroke="#34271f" stroke-width="6" fill="none" marker-end="url(#arrow)"/>

  <circle cx="300" cy="200" r="20" fill="#ffcf96"/>
  <circle cx="330" cy="176" r="20" fill="#a5d6ff"/>
  <circle cx="360" cy="205" r="20" fill="#dff5df"/>
  <text x="530" y="355" font-family="Georgia, serif" font-size="24" fill="#5d483a">"I reached into PersistentRoot and</text>
  <text x="530" y="388" font-family="Georgia, serif" font-size="24" fill="#5d483a">pulled out a queue. This feels illegal."</text>
  <text x="190" y="510" font-family="Helvetica, Arial, sans-serif" font-size="22" fill="#1f2937">HatTrickHat: backed by RCQueue</text>

  <defs>
    <marker id="arrow" viewBox="0 0 10 10" refX="8" refY="5" markerWidth="8" markerHeight="8" orient="auto-start-reverse">
      <path d="M0 0 L10 5 L0 10 z" fill="#34271f"/>
    </marker>
  </defs>
</svg>
