<svg xmlns="http://www.w3.org/2000/svg" xmlns:xlink="http://www.w3.org/1999/xlink" width="128" height="91" viewBox="0 0 128 91">
  <defs>
    <linearGradient id="hat-dark">
      <stop offset="0" stop-color="#000"/>
      <stop offset="1" stop-color="#a6a6a6"/>
    </linearGradient>
    <linearGradient id="hat-shine">
      <stop offset="0" stop-color="#000"/>
      <stop offset="1" stop-color="#f0f0f0" stop-opacity="0"/>
    </linearGradient>
    <linearGradient id="hat-brim" gradientUnits="userSpaceOnUse" gradientTransform="scale(2.136976,0.467951)" x1="22.187286" x2="16.779757" y1="132.77177" y2="61.286285" xlink:href="#hat-dark"/>
    <linearGradient id="hat-body" gradientUnits="userSpaceOnUse" gradientTransform="matrix(1.033599,-0.163893,0.149649,0.943765,-9.997055,2.205048)" x1="26.260822" x2="69.193031" y1="51.746941" y2="26.684929" xlink:href="#hat-dark"/>
    <linearGradient id="hat-body-shine" gradientUnits="userSpaceOnUse" gradientTransform="matrix(1.033598,-0.163893,0.149649,0.943765,-0.092646,1.355160)" x1="33.907612" x2="34.284950" y1="34.427311" y2="63.930538" xlink:href="#hat-shine"/>
    <linearGradient id="hat-top" gradientUnits="userSpaceOnUse" gradientTransform="scale(1.842778,0.542659)" x1="18.646591" x2="29.078070" y1="54.172573" y2="32.976986" xlink:href="#hat-dark"/>
    <linearGradient id="hat-top-shine" gradientUnits="userSpaceOnUse" gradientTransform="scale(1.842779,0.542659)" x1="13.258139" x2="33.361179" y1="45.650658" y2="45.650658" xlink:href="#hat-shine"/>
  </defs>
  <g transform="matrix(1.985661,0,0,1.985661,-21.70775,-27.00225)">
    <path d="M 77.159092 53.181820 A 31.136364 6.8181820 0 1 1 14.886364,53.181820 A 31.136364 6.8181820 0 1 1 77.159092 53.181820 z" fill="url(#hat-brim)" transform="matrix(0.987661,-0.156609,0.156609,0.987661,-11.76257,4.245570)"/>
    <path d="M 26.257855,50.270595 L 18.808560,23.009738 L 53.319862,17.443182 L 54.886364,45.879156 C 52.828322,47.937198 47.003649,56.300561 26.257855,50.270595 z" fill="url(#hat-body)"/>
    <path d="M 26.251239,50.277489 L 18.863636,22.981329 L 53.289712,17.642045 L 54.846465,45.825193 C 53.085101,47.700194 46.997033,56.307455 26.251239,50.277489 z" fill="url(#hat-body-shine)" opacity="0.65"/>
    <path d="M 61.477272 24.772728 A 18.522728 5.4545455 0 1 1 24.431816,24.772728 A 18.522728 5.4545455 0 1 1 61.477272 24.772728 z" fill="url(#hat-top)" transform="matrix(0.933127,-0.147962,0.156609,0.987661,-7.906171,2.093615)"/>
    <path d="M 61.477272 24.772728 A 18.522728 5.4545455 0 1 1 24.431816,24.772728 A 18.522728 5.4545455 0 1 1 61.477272 24.772728 z" fill="url(#hat-top-shine)" transform="matrix(0.933127,-0.147962,0.156609,0.987661,-7.906171,2.093615)" opacity="0.45"/>
  </g>
</svg>
