<svg xmlns="http://www.w3.org/2000/svg" width="1280" height="820" viewBox="0 0 1280 820">
  <defs>
    <filter id="drop" x="-4%" y="-4%" width="108%" height="108%">
      <feDropShadow dx="0" dy="6" stdDeviation="10" flood-color="#000" flood-opacity="0.35"/>
    </filter>
  </defs>

  <!-- Window outer -->
  <rect width="1280" height="820" rx="30" fill="#1c1e26"/>
  <!-- Window inner -->
  <rect x="28" y="28" width="1224" height="764" rx="20" fill="#0e1117" stroke="#2e3347" stroke-width="2" filter="url(#drop)"/>
  <!-- Title bar -->
  <rect x="28" y="28" width="1224" height="50" rx="20" fill="#1a1d28"/>
  <rect x="28" y="56" width="1224" height="22" fill="#1a1d28"/>
  <circle cx="74" cy="53" r="10" fill="#ff5f57"/>
  <circle cx="108" cy="53" r="10" fill="#febc2e"/>
  <circle cx="142" cy="53" r="10" fill="#28c840"/>
  <text x="640" y="59" text-anchor="middle" font-family="Menlo, Consolas, monospace" font-size="13" fill="#6a7080">python -m gemstone_py.api_contract --json</text>

  <!-- Shell prompt -->
  <text x="70" y="122" font-family="Menlo, Consolas, monospace" font-size="20" fill="#7ee787">$</text>
  <text x="96" y="122" font-family="Menlo, Consolas, monospace" font-size="20" fill="#d4d7df">python -m gemstone_py.api_contract --json</text>

  <!-- JSON output -->
  <g font-family="Menlo, Consolas, monospace" font-size="20">
    <text x="70" y="168" fill="#7ee787">{</text>
    <text x="110" y="208" fill="#79c0ff">"package"</text>
    <text x="278" y="208" fill="#d4d7df">: </text>
    <text x="310" y="208" fill="#a5d6ff">"gemstone-py"</text>
    <text x="506" y="208" fill="#d4d7df">,</text>

    <text x="110" y="250" fill="#79c0ff">"version"</text>
    <text x="278" y="250" fill="#d4d7df">: </text>
    <text x="310" y="250" fill="#a5d6ff">"0.2.5"</text>
    <text x="436" y="250" fill="#d4d7df">,</text>

    <text x="110" y="292" fill="#79c0ff">"checks"</text>
    <text x="262" y="292" fill="#d4d7df">: [</text>

    <text x="156" y="334" fill="#7ee787">"exports present"</text>
    <text x="430" y="334" fill="#d4d7df">,</text>

    <text x="156" y="376" fill="#7ee787">"cli entry points respond"</text>
    <text x="540" y="376" fill="#d4d7df">,</text>

    <text x="156" y="418" fill="#7ee787">"benchmark tools behave"</text>
    <text x="524" y="418" fill="#d4d7df">,</text>

    <text x="156" y="460" fill="#7ee787">"metadata is sane"</text>
    <text x="412" y="460" fill="#d4d7df">,</text>

    <text x="156" y="502" fill="#7ee787">"pypi artifact verified"</text>

    <text x="110" y="544" fill="#d4d7df">],</text>

    <text x="110" y="586" fill="#79c0ff">"status"</text>
    <text x="250" y="586" fill="#d4d7df">: </text>
    <text x="284" y="586" fill="#7ee787">"ok"</text>
    <text x="340" y="586" fill="#d4d7df">,</text>

    <text x="110" y="628" fill="#79c0ff">"exit_code"</text>
    <text x="286" y="628" fill="#d4d7df">: </text>
    <text x="310" y="628" fill="#f8a261">0</text>

    <text x="70" y="670" fill="#7ee787">}</text>
  </g>

  <!-- Shell prompt after -->
  <text x="70" y="716" font-family="Menlo, Consolas, monospace" font-size="20" fill="#7ee787">$</text>
  <text x="96" y="716" font-family="Menlo, Consolas, monospace" font-size="20" fill="#6a7080">_</text>

  <!-- Footer note -->
  <text x="70" y="770" font-family="Menlo, Consolas, monospace" font-size="15" fill="#586375">Illustrative — the real command runs after pip install and returns machine-readable JSON.</text>
</svg>
